<?xml version="1.0" encoding="UTF-8"?>
<svg width="44px" height="44px" viewBox="0 0 44 44" version="1.1" xmlns="http://www.w3.org/2000/svg" xmlns:xlink="http://www.w3.org/1999/xlink">
    <!-- Generator: Sketch 63.1 (92452) - https://sketch.com -->
    <title>报价</title>
    <desc>Created with Sketch.</desc>
    <g id="页面-1" stroke="none" stroke-width="1" fill="none" fill-rule="evenodd">
        <g id="iPhone-8-Copy-2备份-2" transform="translate(-460.000000, -487.000000)" fill-rule="nonzero">
            <g id="报价" transform="translate(460.000000, 487.000000)">
                <path d="M26.3613588,13.7328285 L5.55156896,13.7328285 C4.79531808,13.7328285 4.17656736,13.1140778 4.17656736,12.3578269 C4.17656736,11.601576 4.79531808,10.9828253 5.55156896,10.9828253 L26.3613588,10.9828253 C27.1176097,10.9828253 27.7363825,11.601576 27.7363825,12.3578269 C27.7406573,13.1140778 27.1176097,13.7328285 26.3613588,13.7328285 Z M20.590649,22.1074476 L5.5429752,22.1074476 C4.78672432,22.1074476 4.1679736,21.4886969 4.1679736,20.732446 C4.1679736,19.9761951 4.78672432,19.3574444 5.5429752,19.3574444 L20.590649,19.3574444 C21.3468998,19.3574444 21.9656506,19.9761951 21.9656506,20.732446 C21.9656506,21.4886969 21.3468998,22.1074476 20.590649,22.1074476 Z M15.1035332,30.2414414 L5.56016272,30.2414414 C4.80391184,30.2414414 4.18516112,29.6226907 4.18516112,28.8664398 C4.18516112,28.110189 4.80391184,27.4914382 5.56016272,27.4914382 L15.1035332,27.4914382 C15.8597841,27.4914382 16.4785348,28.110189 16.4785348,28.8664398 C16.4785348,29.6226907 15.8597841,30.2414414 15.1035332,30.2414414 Z M32.260975,23.2804958 C34.662931,23.2804958 36.918793,24.2129188 38.6117637,25.9101864 C40.3090313,27.607454 41.2457511,29.863316 41.2457511,32.260975 C41.2457511,34.6586341 40.3133282,36.918793 38.6117637,38.6117637 C36.9144961,40.3090313 34.6586341,41.2414542 32.260975,41.2414542 C29.8590191,41.2414542 27.6031571,40.3090313 25.9101864,38.6117637 C24.2129188,36.9144961 23.276199,34.6586341 23.276199,32.260975 C23.276199,29.863316 24.2086219,27.6031571 25.9101864,25.9101864 C27.6031571,24.2172157 29.863316,23.2804958 32.260975,23.2804958 M32.260975,20.5304926 C25.78128,20.5304926 20.5218989,25.7855769 20.5218989,32.2652719 C20.5218989,38.744967 25.78128,44.0000512 32.260975,44.0000512 C38.7406701,44.0000512 44.0000512,38.744967 44.0000512,32.2652719 C44.0000512,25.7855769 38.7492638,20.5304926 32.260975,20.5304926 Z" id="形状" fill="#0E4090"></path>
                <path d="M34.7359779,26.0605772 L33.7176174,28.2047203 C33.0301166,29.6098001 32.6433974,30.4605823 32.5445691,30.7441764 C32.4844128,30.9246454 32.4328502,31.0707393 32.3855846,31.1910519 L32.3254282,31.1910519 C31.9902716,30.366051 31.2039426,28.6558927 29.9449567,26.0519834 L27.1734691,26.0519834 L30.366051,31.6594118 L27.9726888,31.6594118 L27.9726888,33.3480857 L30.9418329,33.3480857 L30.9418329,34.624259 L27.9726888,34.624259 L27.9726888,36.3258235 L30.9418329,36.3258235 L30.9418329,38.6633262 L33.5371484,38.6633262 L33.5371484,36.3258235 L36.416058,36.3258235 L36.416058,34.624259 L33.5414453,34.624259 L33.5414453,33.3437888 L36.416058,33.3437888 L36.416058,31.6637087 L34.0957428,31.6637087 L37.3742622,26.0562803 L34.7359779,26.0562803 L34.7359779,26.0605772 Z" id="路径" fill="#FF932E"></path>
                <path d="M17.8879114,39.9008277 L6.53555448,39.9008277 C2.93047216,39.9008277 0,36.9703555 0,33.3652732 L0,6.53555448 C0,2.93047216 2.93047216,0 6.53555448,0 L29.360581,0 C32.9656634,0 35.8961355,2.93047216 35.8961355,6.53555448 L35.8961355,17.939474 C35.8961355,18.7000218 35.2816817,19.3144756 34.5211339,19.3144756 C33.7605862,19.3144756 33.1461323,18.7000218 33.1461323,17.939474 L33.1461323,6.53555448 C33.1461323,4.4472708 31.4488647,2.75430008 29.360581,2.75430008 L6.53555448,2.75430008 C4.4472708,2.75430008 2.7500032,4.45156768 2.7500032,6.53555448 L2.7500032,33.3652732 C2.7500032,35.4535569 4.4472708,37.1465276 6.53555448,37.1465276 L17.8836146,37.1465276 C18.6441623,37.1465276 19.2586162,37.7609814 19.2586162,38.5215292 C19.262913,39.2863738 18.6484592,39.9008277 17.8879114,39.9008277 Z" id="路径" fill="#0E4090"></path>
            </g>
        </g>
    </g>
</svg>