<?xml version="1.0" encoding="UTF-8"?>
<svg width="36px" height="41px" viewBox="0 0 36 41" version="1.1" xmlns="http://www.w3.org/2000/svg" xmlns:xlink="http://www.w3.org/1999/xlink">
    <!-- Generator: Sketch 63.1 (92452) - https://sketch.com -->
    <title>列表备份 5</title>
    <desc>Created with Sketch.</desc>
    <g id="页面-1" stroke="none" stroke-width="1" fill="none" fill-rule="evenodd">
        <g id="iPhone-8-Copy-2" transform="translate(-266.000000, -1093.000000)" fill="#0E4090" fill-rule="nonzero">
            <g id="列表备份-5" transform="translate(266.000000, 1093.000000)">
                <path d="M31.1738858,-3.20312873e-05 L4.33759282,-3.20312873e-05 C2.07684458,-3.20312873e-05 0.237628086,1.83968095 0.237628086,4.10000477 L0.237628086,39.8817954 C0.237628086,40.4992065 0.738144977,41.0000277 1.35576025,41.0000277 C1.41840784,41.0000277 1.47946788,40.9935253 1.53914457,40.9836902 C1.60194591,40.9943961 1.66546436,41.0000277 1.72923905,41.0000277 C1.97127546,41.0000277 2.21520573,40.9213496 2.42046622,40.7604533 L7.02424306,37.1344155 L11.6279398,40.7604533 C12.0337402,41.0792242 12.6053065,41.0792242 13.0118756,40.7604533 L17.7888216,36.9982585 L22.4188241,40.6447363 C22.8250368,40.9635585 23.396447,40.9635585 23.8027599,40.6447363 L28.4028531,37.0215652 L33.0909923,40.7138357 C33.3105412,40.886719 33.5737839,40.9634536 33.8319561,40.9519792 C33.9345079,40.9829189 34.0430014,41.0000277 34.1556447,41.0000277 C34.7734641,41.0000277 35.2738289,40.4992025 35.2738289,39.8818435 L35.2738289,4.0999327 C35.2738289,1.83949277 33.4347125,-3.20312873e-05 31.1739042,-3.20312873e-05 L31.1738858,-3.20312873e-05 Z M7.04984207,6.83715835 C7.04984207,6.46152824 7.35432147,6.15709808 7.72990233,6.15709808 L21.8025281,6.15709808 C22.1781073,6.15709808 22.4825883,6.46157749 22.4825883,6.83715835 L22.4825883,7.93577144 C22.4825883,8.31140155 22.1781089,8.61583171 21.8025281,8.61583171 L7.72990233,8.61583171 C7.35427223,8.61583171 7.04984207,8.3113523 7.04984207,7.93577144 L7.04984207,6.83715835 L7.04984207,6.83715835 Z M27.9494963,27.6060849 C27.9494963,27.981715 27.6450169,28.2861451 27.269436,28.2861451 L7.72991034,28.2861451 C7.35428023,28.2861451 7.04985007,27.981717 7.04985007,27.6060849 L7.04985007,26.5074718 C7.04985007,26.1318417 7.35432948,25.8274115 7.72991034,25.8274115 L27.269396,25.8274115 C27.6449752,25.8274115 27.9494963,26.1318397 27.9494963,26.5074718 L27.9494963,27.6060849 L27.9494963,27.6060849 Z M27.9494963,21.0493204 C27.9494963,21.4249505 27.6450169,21.7293807 27.269436,21.7293807 L7.72991034,21.7293807 C7.35428023,21.7293807 7.04985007,21.4249525 7.04985007,21.0493204 L7.04985007,19.9507073 C7.04985007,19.5750772 7.35432948,19.270647 7.72991034,19.270647 L27.269396,19.270647 C27.6449752,19.270647 27.9494963,19.5751264 27.9494963,19.9507073 L27.9494963,21.0493204 L27.9494963,21.0493204 Z M27.9494963,14.4925559 C27.9494963,14.868186 27.6450169,15.1726162 27.269436,15.1726162 L7.72991034,15.1726162 C7.35428023,15.1726162 7.04985007,14.8681368 7.04985007,14.4925559 L7.04985007,13.3939428 C7.04985007,13.0183127 7.35432948,12.7138826 7.72991034,12.7138826 L27.269396,12.7138826 C27.6449752,12.7138826 27.9494963,13.018362 27.9494963,13.3939428 L27.9494963,14.4925559 L27.9494963,14.4925559 Z" id="形状"></path>
            </g>
        </g>
    </g>
</svg>