<?xml version="1.0" encoding="UTF-8"?>
<svg width="36px" height="44px" viewBox="0 0 36 44" version="1.1" xmlns="http://www.w3.org/2000/svg" xmlns:xlink="http://www.w3.org/1999/xlink">
    <!-- Generator: Sketch 63.1 (92452) - https://sketch.com -->
    <title>地址</title>
    <desc>Created with Sketch.</desc>
    <g id="页面-1" stroke="none" stroke-width="1" fill="none" fill-rule="evenodd">
        <g id="iPhone-8-Copy-12" transform="translate(-25.000000, -171.000000)">
            <g id="地址" transform="translate(25.000000, 171.000000)">
                <g id="编组" transform="translate(0.400005, 0.000000)">
                    <path d="M17.5328124,44.0000512 L17.5,44.0000512 L17.5,44.0000512 C16.7370154,43.9992951 16.0073816,43.6854311 15.4798523,43.1310502 C15.0664063,42.6965497 11.3170227,38.7200451 7.58733521,33.6820392 C2.55279541,26.8840313 1.0658141e-14,21.461025 1.0658141e-14,17.570329 C1.0658141e-14,7.88150917 7.85094604,-1.0658141e-14 17.5,-1.0658141e-14 C27.149054,-1.0658141e-14 35,7.88150917 35,17.5692119 C35,19.9232146 34.0976563,22.8074094 32.3192017,26.139339 C30.603125,29.352417 28.0229858,33.0847299 24.6487671,37.2339261 L24.6214233,37.2669262 L19.6,43.0419329 L19.6000002,43.0419327 C19.0800972,43.6455455 18.3268495,43.994667 17.5328127,44.0000512 L17.5328124,44.0000512 Z" id="形状" fill="#0E4090" fill-rule="nonzero"></path>
                    <text id="发" font-family="PingFangSC-Regular, PingFang SC" font-size="20" font-weight="normal" fill="#FFFFFF">
                        <tspan x="7.59999481" y="25">发</tspan>
                    </text>
                </g>
            </g>
        </g>
    </g>
</svg>