<?xml version="1.0" encoding="UTF-8"?>
<svg width="44px" height="40px" viewBox="0 0 44 40" version="1.1" xmlns="http://www.w3.org/2000/svg" xmlns:xlink="http://www.w3.org/1999/xlink">
    <!-- Generator: Sketch 63.1 (92452) - https://sketch.com -->
    <title>发货</title>
    <desc>Created with Sketch.</desc>
    <g id="页面-1" stroke="none" stroke-width="1" fill="none" fill-rule="evenodd">
        <g id="iPhone-8-Copy-2备份-2" transform="translate(-97.000000, -489.000000)" fill-rule="nonzero">
            <g id="发货" transform="translate(97.000000, 489.000000)">
                <path d="M6.18525941,17.8181634 L14.8224157,17.8181634 L14.8224156,17.8181634 C15.6152432,17.8290324 16.2667672,17.195132 16.2776364,16.4023044 C16.2777713,16.3891851 16.2777713,16.3760639 16.2776364,16.3629445 L16.2776364,16.3629455 C16.2875114,15.5691262 15.6519971,14.9176022 14.8581778,14.9077247 C14.8462586,14.907587 14.8343381,14.907587 14.8224189,14.9077247 L6.1852627,14.9077247 L6.18526267,14.9077247 C5.39243506,14.8968558 4.74091107,15.530756 4.73004577,16.3235836 C4.72991088,16.336703 4.72991088,16.3498241 4.73004577,16.3629435 C4.73004577,17.1820579 5.36614828,17.8181643 6.18526657,17.8181643 L6.18525941,17.8181634 Z M8.09356695,10.2737843 L19.3675215,10.2737843 C20.1848595,10.2737843 20.8227423,9.6376818 20.8227423,8.81856351 C20.8227423,7.99944912 20.1848634,7.3633427 19.3675215,7.3633427 L8.09356695,7.3633427 C7.36684474,7.3633427 6.72896583,8.09006491 6.72896583,8.81856351 C6.73074266,9.54528571 7.36684474,10.2737843 8.09356695,10.2737843 Z M38.64073,21.0911072 L32.9140154,21.0911072 L32.9140154,15.8192674 L32.9140154,15.8192684 C32.9238904,15.0254491 32.288376,14.3739251 31.4945568,14.3640476 C31.4826376,14.363934 31.4707171,14.363934 31.458798,14.3640476 L31.458798,14.3640476 C30.6649787,14.354173 30.0134548,14.9896869 30.0035772,15.7835062 C30.003466,15.7954253 30.003466,15.8073458 30.0035772,15.8192649 L30.0035772,22.546306 C30.0035772,23.363644 30.6396797,24.0015268 31.458798,24.0015268 L38.6407139,24.0015268 C39.4580519,24.0015268 40.0960265,23.3654243 40.0960265,22.546306 L40.0960265,22.5463035 C40.1048148,21.7514886 39.4676913,21.0999685 38.6728765,21.0910866 C38.662156,21.0909668 38.6514345,21.0909668 38.640714,21.0910866 L38.64073,21.0911072 Z M10.0942589,25.4549932 C10.9115969,25.4549932 11.5495932,24.8188907 11.5495932,23.9997724 L11.5495932,23.9997733 C11.5593547,23.2059541 10.9238403,22.5544301 10.130021,22.5445525 C10.1181019,22.5444043 10.1061814,22.5444043 10.0942622,22.5445525 L1.45710596,22.5445525 L1.45710596,22.5445525 C0.663286692,22.534678 0.0117627064,23.1701919 0.00177395716,23.9640111 C0.00177395716,23.9759303 0.00177395716,23.9878508 0.00177395716,23.99977 C0.00177395716,24.817108 0.63798767,25.4549932 1.45710596,25.4549932 L10.0942622,25.4549932 L10.0942589,25.4549932 Z" id="形状" fill="#FF932E"></path>
                <path d="M43.0953997,19.5470079 L36.4589744,10.3644001 L36.4589744,10.3644 C35.6818611,9.22139961 34.3869689,8.53998139 33.0048302,8.54670828 L26.1853775,8.54670828 L26.1853775,4.27343805 L26.1853775,4.27341732 C26.1883118,1.91630592 24.2798731,0.00311426213 21.9227656,4.88051867e-05 C21.9192098,4.88051867e-05 21.9156539,4.88051867e-05 21.912098,4.88051867e-05 L9.00350648,4.88051867e-05 L9.0035064,4.88051867e-05 C8.21067879,-0.0106698668 7.55916652,0.623240963 7.54830902,1.41606857 C7.5481376,1.42858776 7.54812995,1.44110867 7.54828608,1.45362806 C7.54828608,2.27274244 8.18438859,2.90884886 9.00350688,2.81645277 L21.8232785,2.81645277 C22.6406165,2.81645277 23.2784993,3.45255529 23.2784993,4.27167358 L23.2784993,33.2729805 L18.5521502,33.2729805 L18.5521503,33.2729815 C18.1232695,30.4934429 15.7267064,28.4450849 12.9142946,28.4542207 L12.9142946,28.4542207 C10.1025504,28.4459377 7.7069907,30.4940948 7.27819571,33.2729815 L2.45943484,33.2729815 L2.45943484,33.2729815 C1.66561557,33.263107 1.01409159,33.8986209 1.00410284,34.6924402 C1.00410284,34.7043593 1.00410284,34.7162798 1.00410284,34.728199 C1.00410284,35.545537 1.64031655,36.1834198 2.45943484,36.1834198 L7.56070145,36.1834198 L7.56070159,36.1834202 C8.38402077,38.4279705 10.5234942,39.9177197 12.9142557,39.9112172 C15.3182991,39.9112172 17.3740671,38.3635829 18.2216234,36.1834202 L28.4721389,36.1834202 L28.4721387,36.1834197 C29.2958912,38.4276343 31.4350953,39.9171961 33.8256928,39.9112172 C36.2279598,39.9112172 38.2855042,38.3635824 39.1330605,36.1834197 L39.644784,36.1834197 L39.6447841,36.1834197 C42.0018955,36.1863655 43.9150871,34.2779388 43.9180576,31.9208079 C43.9180576,31.917252 43.9180576,31.9136962 43.9180576,31.9101403 L43.9180576,22.0008102 L43.9180576,22.0008211 C43.9079637,21.1168546 43.6201701,20.2584369 43.0953911,19.5470269 L43.0953997,19.5470079 Z M12.9124957,37.0931288 C11.2760394,37.0931288 10.0038344,35.8209237 10.0944541,34.2750871 C10.0944541,32.7292505 11.3666591,31.4570455 12.9124957,31.4570455 C14.4583323,31.4570455 15.7305373,32.7292505 15.7305373,34.2750871 C15.7305373,35.8209237 14.4583323,37.0931288 12.9124957,37.0931288 Z M33.8221761,37.0931288 C32.1857198,37.0931288 30.9135148,35.8209237 31.0041345,34.2750871 C31.0041345,32.7292505 32.2763395,31.4570455 33.8221761,31.4570455 C35.3680127,31.4570455 36.6402177,32.7292505 36.6402177,34.2750871 C36.6402177,35.8209237 35.3680127,37.0931288 33.8221761,37.0931288 Z M41.0966414,31.8195321 L41.0966414,31.8195341 C41.1073715,32.6123617 40.4734685,33.2638818 39.6806409,33.274751 C39.6675215,33.2749309 39.6544003,33.2749308 39.641281,33.274751 L39.4600451,33.274751 L39.4600451,33.2747509 C39.0312657,30.4958798 36.6357061,28.4477132 33.8239462,28.45599 L33.8239464,28.45599 C30.978111,28.4481175 28.5650684,30.546064 28.1771892,33.3653667 L26.1871478,33.3653667 L26.1871478,11.364744 L33.0066006,11.364744 C33.4614676,11.364744 33.9163347,11.636598 34.1881898,12.0008466 L40.8246151,21.1834544 L40.8246152,21.1834544 C40.994942,21.4225782 41.0896392,21.7072886 41.0964692,22.0007924 L41.0964692,31.8195067 L41.0966414,31.8195321 Z" id="形状" fill="#0E4090"></path>
            </g>
        </g>
    </g>
</svg>