<?xml version="1.0" encoding="UTF-8"?>
<svg width="80px" height="80px" viewBox="0 0 80 80" version="1.1" xmlns="http://www.w3.org/2000/svg" xmlns:xlink="http://www.w3.org/1999/xlink">
    <!-- Generator: Sketch 63.1 (92452) - https://sketch.com -->
    <title>编组 2</title>
    <desc>Created with Sketch.</desc>
    <g id="页面-1" stroke="none" stroke-width="1" fill="none" fill-rule="evenodd">
        <g id="iPhone-8-Copy-12备份-7" transform="translate(-32.000000, -1009.000000)">
            <g id="编组-2" transform="translate(32.000000, 1009.000000)">
                <circle id="椭圆形" fill="#0E4090" cx="40" cy="40" r="40"></circle>
                <g id="编组" transform="translate(13.000000, 16.000000)" fill="#FFFFFF">
                    <path d="M54.8710938,7.31646352 C45.4752604,8.46669826 38.1419271,15.1380598 32.8710938,27.330548 C27.6002604,39.5230363 21.0690104,46.5394682 13.2773438,48.3798438 C27.4856771,50.2202194 36.6523438,44.9291396 40.7773438,32.5066044 C44.9023438,20.0840692 49.6002604,11.6873555 54.8710938,7.31646352 Z" id="路径-3备份-2"></path>
                    <path d="M10.5273438,46.9995621 C2.50651042,42.1685762 -0.930989583,37.2225668 0.21484375,32.1615339 C0.21484375,32.1615339 1.02595956,28.2242467 5.71484375,29.4009706 C7.08984375,29.746041 8.12109375,30.7812523 8.80859375,32.1615339 C8.80859375,32.1615339 4.99968053,33.8332822 5.37109375,38.0277311 C5.51247915,39.6244267 7.23122915,42.615037 10.5273438,46.9995621 Z" id="路径-4备份"></path>
                    <path d="M1.24609375,28.3657593 C2.85026042,27.2155246 4.91276042,26.8704541 7.43359375,27.330548 C11.2148438,28.0206889 14.3085938,36.302379 21.5273438,35.6122382 C28.7460938,34.9220973 31.8398438,26.2953368 27.7148438,22.1544917 C23.5898438,18.0136466 13.9648438,17.3235058 8.80859375,20.0840692 C5.37109375,21.9244447 2.85026042,24.6850081 1.24609375,28.3657593 Z" id="路径-5备份"></path>
                    <path d="M26.1125989,5.86619718 C30.6959323,4.53257193 35.5084323,4.09580624 40.5500989,4.55590014 C47.1125372,5.15477705 52.5445291,-0.700288274 52.2375989,0.0699846487 C50.8625989,3.52068887 48.7837913,6.63177942 43.6438489,8.35167479 C41.5813489,9.04181563 38.4875989,10.0070423 34.3625989,8.28169014 C31.9536549,7.27410791 29.2036549,6.46894359 26.1125989,5.86619718 Z" id="路径-6" transform="translate(39.181299, 4.625785) scale(-1, 1) translate(-39.181299, -4.625785) "></path>
                </g>
            </g>
        </g>
    </g>
</svg>