<?xml version="1.0" encoding="UTF-8"?>
<svg width="54px" height="48px" viewBox="0 0 54 48" version="1.1" xmlns="http://www.w3.org/2000/svg" xmlns:xlink="http://www.w3.org/1999/xlink">
    <!-- Generator: Sketch 63.1 (92452) - https://sketch.com -->
    <title>照片 拍照备份</title>
    <desc>Created with Sketch.</desc>
    <g id="页面-1" stroke="none" stroke-width="1" fill="none" fill-rule="evenodd">
        <g id="iPhone-8-Copy-2备份-18" transform="translate(-63.000000, -212.000000)" fill="#999999" fill-rule="nonzero">
            <g id="编组" transform="translate(0.000000, 148.000000)">
                <g id="照片-拍照备份" transform="translate(63.000000, 64.000000)">
                    <path d="M47.25,12.0839161 C46.575,11.4125874 45.9,11.0769231 45.225,11.0769231 C44.55,11.0769231 43.875,11.4125874 43.2,12.0839161 C42.525,12.7552448 42.1875,13.4265734 42.1875,14.0979021 L47.925,14.0979021 C48.2625,13.4265734 47.925,12.7552448 47.25,12.0839161 Z M27,38.6013986 C33.4125,38.6013986 38.475,33.2307692 38.475,26.8531469 C38.475,20.4755245 33.4125,15.1048951 27,15.1048951 C20.5875,15.1048951 15.525,20.4755245 15.525,26.8531469 C15.525,33.2307692 20.5875,38.6013986 27,38.6013986 Z M27,19.1328671 C31.3875,19.1328671 34.7625,22.4895105 34.7625,26.8531469 C34.7625,31.2167832 31.3875,34.5734266 27,34.5734266 C22.6125,34.5734266 19.2375,31.2167832 19.2375,26.8531469 C19.2375,22.4895105 22.6125,19.1328671 27,19.1328671 Z M48.2625,5.37062937 L27,5.37062937 C25.9875,5.37062937 24.975,6.37762238 24.975,7.38461538 C24.975,8.39160839 25.9875,9.3986014 27,9.3986014 L48.2625,9.3986014 C49.275,9.3986014 50.2875,10.4055944 50.2875,11.4125874 L50.2875,42.6293706 C50.2875,43.6363636 49.275,44.6433566 48.2625,44.6433566 L5.7375,44.6433566 C4.725,44.6433566 3.7125,43.6363636 3.7125,42.6293706 L3.7125,11.0769231 C3.7125,10.0699301 4.725,9.06293706 5.7375,9.06293706 L11.475,9.06293706 C12.4875,9.3986014 13.5,8.39160839 13.5,7.38461538 C13.5,6.37762238 12.4875,5.37062937 11.475,5.37062937 L5.7375,5.37062937 C2.7,5.37062937 0,8.05594406 0,11.0769231 L0,42.2937063 C0,45.6503497 2.7,48 5.7375,48 L48.2625,48 C51.3,48 54,45.3146853 54,42.2937063 L54,11.0769231 C54,8.05594406 51.3,5.37062937 48.2625,5.37062937 Z M13.5,4.02797203 L24.3,4.02797203 C24.975,4.02797203 25.65,3.35664336 25.65,2.68531469 L25.65,1.34265734 C25.65,0.671328671 24.975,0 24.3,0 L13.5,0 C12.825,0 12.15,0.671328671 12.15,1.34265734 L12.15,2.68531469 C12.15,3.35664336 12.825,4.02797203 13.5,4.02797203 Z" id="形状"></path>
                </g>
            </g>
        </g>
    </g>
</svg>