<?xml version="1.0" encoding="UTF-8"?>
<svg width="117px" height="104px" viewBox="0 0 117 104" version="1.1" xmlns="http://www.w3.org/2000/svg" xmlns:xlink="http://www.w3.org/1999/xlink">
    <!-- Generator: Sketch 63.1 (92452) - https://sketch.com -->
    <title>照片 拍照</title>
    <desc>Created with Sketch.</desc>
    <g id="页面-1" stroke="none" stroke-width="1" fill="none" fill-rule="evenodd">
        <g id="iPhone-8-Copy-2备份-17" transform="translate(-317.000000, -481.000000)" fill="#333333" fill-rule="nonzero">
            <g id="编组" transform="translate(261.000000, 481.000000)">
                <g id="照片-拍照" transform="translate(56.000000, 0.000000)">
                    <path d="M102.375,26.1818182 C100.9125,24.7272727 99.45,24 97.9875,24 C96.525,24 95.0625,24.7272727 93.6,26.1818182 C92.1375,27.6363636 91.40625,29.0909091 91.40625,30.5454545 L103.8375,30.5454545 C104.56875,29.0909091 103.8375,27.6363636 102.375,26.1818182 Z M58.5,83.6363636 C72.39375,83.6363636 83.3625,72 83.3625,58.1818182 C83.3625,44.3636364 72.39375,32.7272727 58.5,32.7272727 C44.60625,32.7272727 33.6375,44.3636364 33.6375,58.1818182 C33.6375,72 44.60625,83.6363636 58.5,83.6363636 Z M58.5,41.4545455 C68.00625,41.4545455 75.31875,48.7272727 75.31875,58.1818182 C75.31875,67.6363636 68.00625,74.9090909 58.5,74.9090909 C48.99375,74.9090909 41.68125,67.6363636 41.68125,58.1818182 C41.68125,48.7272727 48.99375,41.4545455 58.5,41.4545455 Z M104.56875,11.6363636 L58.5,11.6363636 C56.30625,11.6363636 54.1125,13.8181818 54.1125,16 C54.1125,18.1818182 56.30625,20.3636364 58.5,20.3636364 L104.56875,20.3636364 C106.7625,20.3636364 108.95625,22.5454545 108.95625,24.7272727 L108.95625,92.3636364 C108.95625,94.5454545 106.7625,96.7272727 104.56875,96.7272727 L12.43125,96.7272727 C10.2375,96.7272727 8.04375,94.5454545 8.04375,92.3636364 L8.04375,24 C8.04375,21.8181818 10.2375,19.6363636 12.43125,19.6363636 L24.8625,19.6363636 C27.05625,20.3636364 29.25,18.1818182 29.25,16 C29.25,13.8181818 27.05625,11.6363636 24.8625,11.6363636 L12.43125,11.6363636 C5.85,11.6363636 0,17.4545455 0,24 L0,91.6363636 C0,98.9090909 5.85,104 12.43125,104 L104.56875,104 C111.15,104 117,98.1818182 117,91.6363636 L117,24 C117,17.4545455 111.15,11.6363636 104.56875,11.6363636 Z M29.25,8.72727273 L52.65,8.72727273 C54.1125,8.72727273 55.575,7.27272727 55.575,5.81818182 L55.575,2.90909091 C55.575,1.45454545 54.1125,0 52.65,0 L29.25,0 C27.7875,0 26.325,1.45454545 26.325,2.90909091 L26.325,5.81818182 C26.325,7.27272727 27.7875,8.72727273 29.25,8.72727273 Z" id="形状"></path>
                </g>
            </g>
        </g>
    </g>
</svg>