<?xml version="1.0" encoding="UTF-8"?>
<svg width="30px" height="30px" viewBox="0 0 30 30" version="1.1" xmlns="http://www.w3.org/2000/svg" xmlns:xlink="http://www.w3.org/1999/xlink">
    <!-- Generator: Sketch 63.1 (92452) - https://sketch.com -->
    <title>日期备份</title>
    <desc>Created with Sketch.</desc>
    <g id="页面-1" stroke="none" stroke-width="1" fill="none" fill-rule="evenodd">
        <g id="iPhone-8-Copy-12备份" transform="translate(-28.000000, -468.000000)" fill="#FF932E" fill-rule="nonzero">
            <g id="日期备份" transform="translate(28.000000, 468.000000)">
                <path d="M20.9400325,2.35001088 L23.4700355,2.35001088 C26.6600392,2.35001088 29.3000422,4.99001395 29.3000422,8.18001766 L29.3000422,8.62001818 L0.70000896,8.84001843 L0.70000896,8.18001766 C0.70000896,4.99001395 3.34001203,2.35001088 6.53001574,2.35001088 L9.06001869,2.35001088 L9.06001869,1.2500096 C9.06001869,0.590008832 9.61001933,0.040008192 10.2700201,0.040008192 C10.9300209,0.040008192 11.4800215,0.590008832 11.4800215,1.2500096 L11.4800215,2.35001088 L18.74003,2.35001088 L18.74003,1.2500096 C18.74003,0.590008832 19.2900306,0.040008192 19.9500314,0.040008192 C20.6100321,0.040008192 21.1600328,0.590008832 21.1600328,1.2500096 L21.1600328,2.35001088 L20.9400325,2.35001088 Z M10.4900204,15.9900268 C10.0500198,15.5500262 9.28001894,15.5500262 8.84001843,15.9900268 C8.40001792,16.4300273 8.40001792,17.2000282 8.84001843,17.6400287 L12.5800228,21.380033 C12.800023,21.6000333 13.1300234,21.7100334 13.4600238,21.7100334 C13.7900242,21.7100334 14.010018,21.6000333 14.2300247,21.380033 L20.6100321,15.6600264 C21.0500326,15.2200259 21.1600328,14.450025 20.7200323,14.0100244 C20.2800317,13.5700239 19.5100308,13.4600238 19.0700303,13.9000243 L13.4600238,18.8500301 L10.4900204,15.9900268 Z M0.70000896,24.0200361 L0.70000896,9.94001971 L29.3000422,9.72001946 L29.3000422,24.0200361 C29.3000422,27.2100398 26.6600392,29.8500429 23.4700355,29.8500429 L6.53001574,29.8500429 C3.34001203,29.8500429 0.70000896,27.2100398 0.70000896,24.0200361 Z" id="形状"></path>
            </g>
        </g>
    </g>
</svg>