<?xml version="1.0" encoding="UTF-8"?>
<svg width="41px" height="41px" viewBox="0 0 41 41" version="1.1" xmlns="http://www.w3.org/2000/svg" xmlns:xlink="http://www.w3.org/1999/xlink">
    <!-- Generator: Sketch 63.1 (92452) - https://sketch.com -->
    <title>商 城备份 5</title>
    <desc>Created with Sketch.</desc>
    <g id="页面-1" stroke="none" stroke-width="1" fill="none" fill-rule="evenodd">
        <g id="iPhone-8-Copy-2" transform="translate(-445.000000, -1093.000000)" fill="#0E4090" fill-rule="nonzero">
            <g id="商-城备份-5" transform="translate(445.000000, 1093.000000)">
                <path d="M39.7072494,12.8086187 C39.7072494,12.7826134 39.6981364,12.7626094 39.6981364,12.7386043 L39.6981364,12.7386046 C39.6834021,12.6466797 39.6595671,12.5567958 39.6270552,12.4705499 L36.2315563,3.12863309 C35.6483267,1.20623833 34.0262139,-1.10634788e-05 31.9867243,-1.10634788e-05 L8.20730557,-1.10634788e-05 C6.21156128,-1.10634788e-05 4.65324186,1.18023298 4.09552177,3.03661207 L0.452165883,12.5625787 C0.439407711,12.6225911 0.412068781,12.7026074 0.397487952,12.7866248 L0.397487648,12.7866258 C0.134891383,13.6764306 0.000828148107,14.6058745 0.000162373087,15.5411916 C0.000162373087,18.8018632 1.61498366,21.7764565 4.2103527,23.3068055 C5.27657181,23.9409373 6.53416386,24.2630011 7.94666787,24.2630011 L7.95760346,24.2630011 L7.95760329,24.2630011 C10.3035666,24.2588983 12.5268493,23.1120878 14.0268369,21.1323563 L14.0268365,21.1323558 C15.517667,23.1026544 17.727976,24.2456547 20.061464,24.2529971 L20.0614637,24.2529971 C22.3870123,24.2394694 24.5870249,23.0933307 26.0669324,21.124353 L26.0669319,21.1243523 C27.5695754,23.1102775 29.8024282,24.2549151 32.1543942,24.2449936 C33.5997134,24.2329912 34.8755306,23.9029231 35.9526941,23.2487877 L35.952694,23.2487877 C39.3202517,21.2032437 40.8944892,16.8250183 39.7072379,12.8066358 L39.7072494,12.8086187 Z M31.2868331,14.362939 L8.15624243,14.362939 L8.15624243,14.362939 C7.35700978,14.3618575 6.70989783,13.6498633 6.7108829,12.7726567 C6.7108829,12.7693071 6.7108829,12.7659575 6.7108829,12.762608 C6.7108829,11.8764256 7.35612434,11.1622771 8.1562435,11.1622771 L31.28865,11.1622771 C32.090592,11.1622771 32.7339692,11.8764256 32.7339692,12.762608 C32.7339692,13.6487904 32.0851234,14.362939 31.2831813,14.362939 L31.2868331,14.362939 Z M37.0990847,27.1615524 C37.0990847,26.2733692 36.4538846,25.5612214 35.6537654,25.5612214 L35.6537654,25.5612214 C35.5097383,25.5675647 35.3675804,25.5993105 35.2327463,25.6552408 L35.232746,25.6552409 C34.1277731,26.1302771 32.9469374,26.3561504 31.7606972,26.3193756 C29.4824507,26.1793469 27.7418727,25.6852438 26.0723795,24.1089213 L26.0723791,24.1089213 C24.4033239,25.6828605 22.2800961,26.5567416 20.0796919,26.575428 C17.8105597,26.5614251 15.6890659,25.9332972 14.0341343,24.3669744 C12.364634,25.9432969 10.2340187,26.7054547 7.96490074,26.7054547 L7.95761036,26.7054547 C6.57243517,26.7054547 5.79054115,26.4133946 4.52930336,25.8972883 C4.49831923,25.8832854 4.45639958,25.8732834 4.4199475,25.8532793 L4.25226868,25.7832649 C4.25226868,25.7832649 4.04084737,25.7392559 3.93331403,25.7392559 L3.93331408,25.7392559 C3.13219091,25.7447625 2.48597259,26.4602898 2.4879901,27.3395869 L2.49710784,35.9113469 C2.49710856,38.1678097 4.16113951,40.0081949 6.20244845,40.0081949 L33.4065498,39.994192 L33.4065499,39.994192 C35.4558161,39.9722475 37.1064077,38.1426506 37.1064077,35.8933583 L37.0991173,27.1615804 L37.0990847,27.1615524 Z" id="形状"></path>
            </g>
        </g>
    </g>
</svg>