<?xml version="1.0" encoding="UTF-8"?>
<svg width="245px" height="217px" viewBox="0 0 245 217" version="1.1" xmlns="http://www.w3.org/2000/svg" xmlns:xlink="http://www.w3.org/1999/xlink">
    <!-- Generator: Sketch 63.1 (92452) - https://sketch.com -->
    <title>审核</title>
    <desc>Created with Sketch.</desc>
    <g id="页面-1" stroke="none" stroke-width="1" fill="none" fill-rule="evenodd" opacity="0.849562872">
        <g id="iPhone-8-Copy-2备份-19" transform="translate(-253.000000, -434.000000)" fill-rule="nonzero">
            <g id="审核" transform="translate(253.000000, 434.000000)">
                <path d="M219.012769,207.09482 C215.441762,207.09482 212.018713,205.672831 209.493492,203.137762 L209.493492,203.137762 C206.969161,200.602497 205.552018,197.169 205.552632,193.589748 L205.552632,23.4615132 C205.524574,10.4925695 195.041136,0 182.116659,0 L52.9866469,0 C50.2318663,0 48,2.23892145 48,5.00377785 L48,94.0427115 C48,96.8050037 50.2318875,99.0464893 52.9866469,99.0464893 C68.0282316,99.0464893 80.2308299,111.264866 80.2589902,126.357894 L80.2589902,141.364099 L80.2589902,141.364393 C80.2589898,144.129313 82.4984365,146.370714 85.2609454,146.370714 C85.5060526,146.370714 85.7508274,146.352682 85.9932923,146.316764 C86.6386237,146.268258 87.2890557,146.268258 87.9369385,146.316764 L87.9369378,146.316764 C94.8298073,146.325218 100.410743,151.924717 100.402295,158.823623 C100.402295,158.82363 100.402295,158.823636 100.402295,158.823642 L100.402296,158.823453 C100.361078,176.252015 90.7942818,192.260735 75.4717077,200.541169 L75.4717074,200.541169 C73.1841767,201.803165 72.2510953,204.613743 73.3291072,206.995008 C74.030554,208.570175 74.4029587,210.272979 74.4259146,211.998786 C74.4259146,214.761079 76.6578021,217 79.4100208,217 L219.013353,217 C221.768134,217 224,214.761079 224,211.996222 C224,209.23393 221.768113,206.995008 219.013353,206.995008 L219.013353,207.097126 L219.012769,207.09482 Z" id="路径" fill="#E6EFFF" opacity="0.7"></path>
                <path d="M221.492073,206.617181 L221.492073,206.617181 C213.974106,206.614372 207.879105,200.524168 207.872062,193.007896 L207.872062,21.597514 L207.872062,21.5976565 C207.867892,18.3706362 207.198238,15.1791223 205.904927,12.2224706 L200.859536,13.0810124 L200.859536,13.0810129 C197.718173,6.88962219 191.360062,2.99163912 184.4161,3 L165.750698,3 L165.750698,28.4506232 L165.750698,28.4506232 C170.535241,28.4712946 175.075203,30.5674083 178.193446,34.1954667 L178.193446,34.1954668 C181.31023,37.8213682 182.697618,42.6222157 181.995326,47.3512892 C176.244089,85.8582654 155.863802,171.58767 86.907511,192.704767 L86.9075129,192.704766 C83.8851941,195.593429 80.4928404,198.068386 76.8192906,200.064779 L76.8192908,200.064779 C74.376286,201.26444 73.3272049,204.186543 74.4494934,206.665625 C75.1986566,208.32921 75.5757881,210.135459 75.5579505,211.959544 C75.5579505,214.741518 77.8156418,217 80.6033414,217 L221.843784,217 L221.843784,217 C224.628162,217.061289 226.936111,214.855354 227,212.071603 C227.061302,209.287852 224.854871,206.980424 222.070492,206.917849 C221.994934,206.916151 221.919347,206.916151 221.84379,206.917849 L221.49214,206.617231 L221.492073,206.617181 Z" id="路径" fill="#D4E4FF" opacity="0.7"></path>
                <path d="M201,166 L201,191.063948 C201,200.969114 209.506954,209 220.000021,209 C230.493067,209 239,200.969114 239,191.063948 L239,166 L201,166 L201,166 Z" id="路径" fill="#B1CDFF" opacity="0.7"></path>
                <path d="M36,22.8879822 L36,48 L165.5,48 L165.5,22.8879822 C165.525525,13.0005215 173.803326,5 184,5 L54.5,5 C44.303297,5 36.0255026,13.0005215 36,22.8879822 Z" id="路径" fill="#FFDEAD" opacity="0.7"></path>
                <path d="M184,3 C179.075183,3 174.354493,5.02910609 170.884128,8.63754308 L170.884129,8.63754196 C167.392414,12.2936983 165.461037,17.168835 165.5,22.2279548 L165.5,49 L36,49 L36,22.2279548 C36.0255172,11.6863188 44.303317,3.15589549 54.4999895,3.15589549 L184,3 L184,3 Z" id="路径" fill="#C2D8FF" opacity="0.7"></path>
                <path d="M91.0634949,87.1621416 L134.749,87.1621416 C137.547241,87.1621416 139.812495,84.8883573 139.812495,82.0810708 C139.812495,79.2737844 137.547241,77 134.749,77 L91.0634949,77 C88.2652539,77 86,79.2737844 86,82.0810708 C86,84.8883573 88.2652539,87.1621416 91.0634949,87.1621416 Z M162.874989,160.837858 L144.937505,160.837858 L144.937505,160.837858 C142.107039,160.837858 139.812516,163.112739 139.812516,165.918929 C139.812516,168.72514 142.10706,171 144.937505,171 L162.874989,171 L162.874989,171 C165.705456,171 167.999978,168.725119 167.999978,165.918929 C167.999978,163.112718 165.705434,160.837858 162.874989,160.837858 L162.874989,160.837858 Z M93.5285898,115.108052 L163.033884,115.108052 C165.775757,115.108052 168,112.834268 168,110.026981 C168,107.219695 165.778309,104.945911 163.033884,104.945911 L93.5311423,104.945911 C90.7892694,104.945911 88.5650259,107.219695 88.5650259,110.026981 C88.5650259,112.834268 90.7867168,115.108052 93.5311423,115.108052 L93.5285898,115.108052 Z M93.5285898,143.053963 L163.033884,143.053963 C165.775757,143.053963 168,140.780179 168,137.972892 C168,135.165606 165.778309,132.891821 163.033884,132.891821 L93.5311423,132.891821 C90.7892694,132.891821 88.5650259,135.165606 88.5650259,137.972892 C88.5650259,140.780179 90.7867168,143.053963 93.5311423,143.053963 L93.5285898,143.053963 Z" id="形状" fill="#0E4090"></path>
                <path d="M239.84128,163.500679 L207.78974,163.500679 L207.78974,23.4998597 C207.764264,10.5309218 197.240046,0.0281849127 184.249637,0 L54.5401031,0 C41.5497998,0.0255293853 31.0281261,10.5334436 31,23.4998597 L31,49.3994634 C31,52.1617543 33.2419075,54.4006748 36.0086109,54.4006748 L49.5313654,54.4006748 L49.5313654,94.4001519 C49.5313654,97.1624429 51.7732729,99.3988203 54.5374385,99.3988203 L54.5374387,99.3988203 C57.2979882,99.4044658 59.5404244,97.1664905 59.5460496,94.4001731 C59.5460496,94.4001661 59.5460496,94.4001591 59.5460496,94.4001521 L59.5460496,54.400675 L165.720556,54.400675 L165.720555,54.400675 C168.481105,54.4063181 170.723541,52.1683451 170.729166,49.4020277 C170.729168,49.4011713 170.72917,49.4003149 170.729171,49.3994585 L170.729171,23.4998548 C170.729171,16.0452633 176.782319,9.9998962 184.249388,9.9998962 C191.719015,9.9998962 197.772142,16.0452633 197.772142,23.4998548 L197.772142,193.500228 L197.772142,193.50014 C197.762013,198.333281 199.24948,203.050376 202.029172,207.00012 L81.2313967,207.00012 L81.2313964,207.00012 C78.470847,206.994475 76.2284108,209.23245 76.2227856,211.998768 C76.2227856,211.998775 76.2227855,211.998782 76.2227855,211.998789 C76.2227855,214.76108 78.4646931,217 81.2313964,217 L221.462646,217 C234.450412,216.974471 244.972085,206.466556 245,193.50014 L245,168.499275 C245,167.146215 244.452261,165.851864 243.48162,164.909831 L243.48162,164.909831 C242.507522,163.967152 241.194604,163.458938 239.841081,163.500607 L239.84128,163.500679 Z M160.712283,23.4998597 L160.712283,44.4007949 L41.0175601,44.4007949 L41.0175601,23.4998597 C41.0430363,16.0554825 47.0809014,10.02798 54.5377769,9.99990106 L164.71973,9.99990106 L164.71973,9.99990106 C162.048823,13.9885982 160.651207,18.6967925 160.712324,23.4998619 L160.712283,23.4998597 Z M221.312494,207.199372 C213.842867,207.199372 207.78974,201.156548 207.78974,193.699414 L207.78974,173.500537 L234.832796,173.500537 L234.832796,193.500276 L234.832796,193.50024 C234.845452,197.091867 233.42673,200.539983 230.891561,203.078893 L230.891561,203.078893 C228.350353,205.623249 224.904795,207.052097 221.312515,207.051271 L221.312515,207.199372 L221.312494,207.199372 Z" id="形状" fill="#0E4090"></path>
                <path d="M107,156.16234 C107,125.950177 83.0472854,102 52.8376603,102 C23.9552523,102 0,125.952715 0,156.16234 C0,185.044748 23.9527146,209 52.8376603,209 C83.0498231,209 107,185.047285 107,156.16234 L107,156.16234 Z" id="路径" fill="#FF932E"></path>
                <path d="M50.4357574,177.875865 C36.4096482,177.875865 25,166.463217 25,152.436655 C25,138.415183 36.4096908,127 50.4357574,127 C64.4618666,127 75.8740699,138.412649 75.8740699,152.436655 C75.8740699,166.463259 64.461824,177.875865 50.4357574,177.875865 L50.4357574,177.875865 Z M50.4357574,133.261586 C39.8622993,133.261586 31.2614289,141.86276 31.2614289,152.436591 C31.2614289,163.010422 39.8622993,171.614173 50.4357574,171.614173 C61.0092154,171.614173 69.6126623,163.010422 69.6126623,152.436591 C69.6126623,141.86276 61.0092154,133.261586 50.4357574,133.261586 Z M80.1449826,185.999999 C79.1574091,185.999999 78.1723993,185.622912 77.4208225,184.871304 L64.1334675,171.58348 L64.1334673,171.58348 C62.6460258,170.061821 62.6737193,167.62243 64.195324,166.134925 C65.6915509,164.67224 68.0816459,164.671118 69.5792335,166.132397 L82.8691649,179.420221 L82.8691651,179.420221 C84.375093,180.923585 84.3772138,183.363151 82.8739029,184.869117 C82.1506307,185.593673 81.1687424,186.000572 80.1449945,185.999999 L80.1449826,185.999999 Z" id="形状" fill="#FFFFFF"></path>
            </g>
        </g>
    </g>
</svg>