<?xml version="1.0" encoding="UTF-8"?>
<svg width="41px" height="42px" viewBox="0 0 41 42" version="1.1" xmlns="http://www.w3.org/2000/svg" xmlns:xlink="http://www.w3.org/1999/xlink">
    <!-- Generator: Sketch 63.1 (92452) - https://sketch.com -->
    <title>Shape备份 4</title>
    <desc>Created with Sketch.</desc>
    <g id="页面-1" stroke="none" stroke-width="1" fill="none" fill-rule="evenodd">
        <g id="iPhone-8-Copy-2" transform="translate(-84.000000, -1093.000000)" fill="#FF932E" fill-rule="nonzero">
            <path d="M123.365464,1110.0256 L107.728785,1094.38734 C106.802386,1093.46245 105.59055,1093 104.377204,1093 C103.163863,1093 101.951967,1093.46245 101.027067,1094.38734 L85.3873456,1110.0256 C83.5375515,1111.87678 83.5375515,1114.87746 85.3873456,1116.72874 L87.6221753,1116.72874 L87.6221753,1128.69564 C87.6221753,1131.86883 90.1946104,1134.44121 93.3662736,1134.44121 L115.387916,1134.44121 C118.561047,1134.44121 121.13196,1131.86883 121.13196,1128.69564 L121.13196,1116.72868 L123.365399,1116.72868 C125.216693,1114.87744 125.216693,1111.87676 123.365399,1110.0256 L123.365464,1110.0256 Z M111.078802,1127.7396 C110.286314,1127.7396 109.64397,1127.09576 109.64397,1126.30321 L109.64397,1111.94082 C109.64397,1111.14827 110.286314,1110.50443 111.078802,1110.50443 C111.872849,1110.50443 112.515193,1111.14827 112.515193,1111.94082 L112.515193,1126.30321 C112.515193,1127.09576 111.872849,1127.7396 111.078802,1127.7396 L111.078802,1127.7396 Z M104.377128,1127.7396 C103.58458,1127.7396 102.940736,1127.09576 102.940736,1126.30321 L102.940736,1117.68638 C102.940736,1116.89234 103.58458,1116.24999 104.377128,1116.24999 C105.169675,1116.24999 105.813519,1116.89239 105.813519,1117.68638 L105.813519,1126.30321 C105.813519,1127.09576 105.169675,1127.7396 104.377128,1127.7396 Z M97.6754532,1127.7396 C96.8814057,1127.7396 96.2390618,1127.09576 96.2390618,1126.30321 L96.2390618,1115.77118 C96.2390618,1114.97713 96.8814057,1114.33479 97.6754532,1114.33479 C98.4680008,1114.33479 99.1117902,1114.97718 99.1117902,1115.77118 L99.1117902,1126.30321 C99.1117902,1127.09576 98.4680008,1127.7396 97.6754532,1127.7396 Z" id="Shape备份-4"></path>
        </g>
    </g>
</svg>