<?xml version="1.0" encoding="UTF-8"?>
<svg width="36px" height="41px" viewBox="0 0 36 41" version="1.1" xmlns="http://www.w3.org/2000/svg" xmlns:xlink="http://www.w3.org/1999/xlink">
    <!-- Generator: Sketch 63.1 (92452) - https://sketch.com -->
    <title>我 的备份 5</title>
    <desc>Created with Sketch.</desc>
    <g id="页面-1" stroke="none" stroke-width="1" fill="none" fill-rule="evenodd">
        <g id="iPhone-8-Copy-2" transform="translate(-631.000000, -1093.000000)" fill="#0E4090" fill-rule="nonzero">
            <g id="我-的备份-5" transform="translate(631.000000, 1093.000000)">
                <path d="M18.4500262,0.76875328 L29.4123339,0.76875328 L29.4123339,11.731061 C29.4123339,17.7869762 24.5059415,22.6933686 18.4500262,22.6933686 C12.394111,22.6933686 7.48771856,17.7869762 7.48771856,11.731061 C7.48771856,5.67514571 12.394111,0.76875328 18.4500262,0.76875328 Z M8.58438976,24.886711 L28.3156627,24.886711 C32.5526012,24.886711 35.9879568,28.3220666 35.9879568,32.5590051 L35.9879568,33.6556763 C35.9879568,37.2892255 33.0414788,40.2312992 29.4123339,40.2312992 L7.48771856,40.2312992 C3.85416941,40.2312992 0.912091446,37.2848212 0.912091446,33.6556763 L0.912091446,32.5590051 C0.907691374,28.3220666 4.34304693,24.886711 8.58438976,24.886711 L8.58438976,24.886711 Z" id="形状"></path>
            </g>
        </g>
    </g>
</svg>