<?xml version="1.0" encoding="UTF-8"?>
<svg width="24px" height="24px" viewBox="0 0 24 24" version="1.1" xmlns="http://www.w3.org/2000/svg" xmlns:xlink="http://www.w3.org/1999/xlink">
    <!-- Generator: Sketch 63.1 (92452) - https://sketch.com -->
    <title>编组 7</title>
    <desc>Created with Sketch.</desc>
    <g id="页面-1" stroke="none" stroke-width="1" fill="none" fill-rule="evenodd">
        <g id="iPhone-8-Copy-12备份-4" transform="translate(-24.000000, -410.000000)">
            <g id="编组-5" transform="translate(0.000000, 378.000000)">
                <g id="编组-7" transform="translate(24.000000, 32.000000)">
                    <rect id="矩形备份" fill="#FF932E" x="0" y="0" width="24" height="24" rx="2"></rect>
                    <g id="对" transform="translate(2.000000, 5.000000)" fill="#FFFFFF" fill-rule="nonzero">
                        <path d="M19.7325803,0.373477716 C19.2992251,-0.047770947 18.6491978,-0.15308049 18.2158427,0.268165725 L7.5986762,11.5365351 L1.74841252,6.90280332 C1.31505739,6.58686805 0.665030096,6.58686805 0.231674966,7.00811497 C-0.0933401218,7.42936363 -0.0933401218,8.06123138 0.340013209,8.48248004 L6.84032217,13.7480621 C6.94866077,13.8533737 7.16533726,13.9586857 7.38201338,13.9586857 C7.70702847,14.0639974 8.03204428,13.9586857 8.35705973,13.7480621 L19.5159246,1.95312751 C20.0576158,1.4265693 20.1659555,0.794698056 19.7326015,0.373449393 L19.7325803,0.373477716 Z" id="路径"></path>
                    </g>
                </g>
            </g>
        </g>
    </g>
</svg>