<?xml version="1.0" encoding="UTF-8"?>
<svg width="43px" height="41px" viewBox="0 0 43 41" version="1.1" xmlns="http://www.w3.org/2000/svg" xmlns:xlink="http://www.w3.org/1999/xlink">
    <!-- Generator: Sketch 63.1 (92452) - https://sketch.com -->
    <title>路径</title>
    <desc>Created with Sketch.</desc>
    <g id="页面-1" stroke="none" stroke-width="1" fill="none" fill-rule="evenodd">
        <g id="iPhone-8-Copy-12备份-8" transform="translate(-226.000000, -633.000000)" fill="#FFD12C" stroke="#FFD200">
            <g id="编组-9" transform="translate(105.000000, 517.000000)">
                <g id="编组-10" transform="translate(122.000710, 116.527238)">
                    <path d="M20.509545,3.29132653e-05 C19.8026482,3.29132653e-05 19.1263553,0.338196677 18.7269929,1.04509473 L12.9202049,10.9678987 L1.64479135,13.425281 L1.64479117,13.4252811 C0.52874773,13.65695 -0.18817643,14.7494866 0.0434916976,15.8655301 C0.118625518,16.2274794 0.289594995,16.5626069 0.538531921,16.8358867 L8.21966009,25.4075955 L7.05218488,36.866657 L7.05218483,36.8666575 C6.93545923,37.9996907 7.75933675,39.0128188 8.89237001,39.1295436 C8.96473995,39.1369992 9.03745383,39.1404016 9.11020636,39.1404016 C9.38713564,39.1404016 9.66260865,39.0791754 9.93953514,38.9567435 L20.477408,34.3174427 L31.0152809,38.9567435 C31.2922102,39.0791754 31.5691379,39.1404016 31.8446097,39.1404016 C33.0120849,39.1404016 34.0265202,38.1259561 33.9026336,36.8666569 L32.7351584,25.4075955 L40.4162866,16.8358867 C41.4613299,15.6378035 40.8768649,13.7634275 39.3100273,13.425285 L28.0652217,10.9985107 L22.2890417,1.04362412 L22.2890418,1.04362427 C21.9299285,0.397839745 21.2483227,-0.00185742072 20.509407,3.29132653e-05" id="路径"></path>
                </g>
            </g>
        </g>
    </g>
</svg>