<?xml version="1.0" encoding="UTF-8"?>
<svg width="28px" height="29px" viewBox="0 0 28 29" version="1.1" xmlns="http://www.w3.org/2000/svg" xmlns:xlink="http://www.w3.org/1999/xlink">
    <!-- Generator: Sketch 63.1 (92452) - https://sketch.com -->
    <title>形状</title>
    <desc>Created with Sketch.</desc>
    <g id="页面-1" stroke="none" stroke-width="1" fill="none" fill-rule="evenodd">
        <g id="iPhone-8-Copy-2备份-2" transform="translate(-48.000000, -625.000000)" fill="#FF932E" fill-rule="nonzero">
            <path d="M74.8246914,636.847425 C75.5333333,637.371192 76,638.226677 76,639.169456 L76,650.901826 C76,652.490584 74.7037037,653.8 73.1308642,653.8 L50.8691358,653.8 C49.2962963,653.8 48,652.508043 48,650.901826 L48,639.169456 C48,638.418725 48.2938272,637.720369 48.7604938,637.214062 C48.7950617,637.161685 48.8469136,637.126767 48.8814815,637.091849 L60.237037,625.743576 C61.3432099,624.800796 62.4666667,624.74842 63.5728395,625.621364 L74.8246914,636.847425 Z M52.8740741,634.158757 L52.8740741,641.107392 L62.1382716,648.370288 L70.6074074,641.666077 L70.6074074,634.158757 L52.8740741,634.158757 Z M55.8814815,635.869728 L55.8814815,637.039473 L67.7382716,637.039473 L67.7382716,635.869728 L55.8814815,635.869728 Z M55.8814815,640.758215 L55.8814815,641.92796 L67.7382716,641.92796 L67.7382716,640.758215 L55.8814815,640.758215 Z M55.8814815,638.279053 L55.8814815,639.448799 L67.7382716,639.448799 L67.7382716,638.279053 L55.8814815,638.279053 L55.8814815,638.279053 Z M51.1283951,651.966817 L56.6938272,646.572023 C56.9358025,646.345057 56.9358025,645.960962 56.7111111,645.716537 C56.4864198,645.472113 56.1061728,645.472113 55.8641975,645.699079 L50.2987654,651.093873 C50.0567901,651.320839 50.0567901,651.704934 50.2814815,651.949358 C50.5234568,652.193783 50.8864198,652.193783 51.1283951,651.966817 L51.1283951,651.966817 Z M74.0987654,651.093873 L68.5333333,645.699079 C68.291358,645.472113 67.9111111,645.472113 67.6864198,645.716537 C67.4617284,645.960962 67.4617284,646.345057 67.7037037,646.572023 L73.2691358,651.966817 C73.5111111,652.193783 73.891358,652.193783 74.1160494,651.949358 C74.3580247,651.704934 74.3407407,651.320839 74.0987654,651.093873 Z" id="形状"></path>
        </g>
    </g>
</svg>