<?xml version="1.0" encoding="UTF-8"?>
<svg width="30px" height="30px" viewBox="0 0 30 30" version="1.1" xmlns="http://www.w3.org/2000/svg" xmlns:xlink="http://www.w3.org/1999/xlink">
    <!-- Generator: Sketch 63.1 (92452) - https://sketch.com -->
    <title>编组 3</title>
    <desc>Created with Sketch.</desc>
    <g id="页面-1" stroke="none" stroke-width="1" fill="none" fill-rule="evenodd">
        <g id="iPhone-8-Copy-12" transform="translate(-28.000000, -559.000000)" fill-rule="nonzero">
            <g id="编组-3" transform="translate(28.000000, 559.000000)">
                <path d="M27.2021062,0 L2.79731433,0 C1.24175652,0 0,1.34356785 0,2.9624959 L0,27.0375041 C0,28.6849177 1.26865377,30 2.79731433,30 L27.2021062,30 C28.757664,30 29.999714,28.6564321 29.999714,27.0375041 L29.999714,2.9624959 C30.0218349,1.34356785 28.757664,0 27.2021062,0 Z" id="形状" fill="#FF932E"></path>
                <g id="编组-2" transform="translate(4.000000, 7.000000)" fill="#FFFFFF">
                    <path d="M11.0483957,-4.26325641e-14 C4.95000576,-4.26325641e-14 1.38555833e-13,4.95000576 1.38555833e-13,11.0483957 C1.38555833e-13,11.5631963 0.422400492,11.9635967 0.915201065,11.9635967 C1.43000166,11.9635967 1.83040213,11.5411962 1.83040213,11.0483957 C1.83040213,5.95758115 5.95760693,1.85238497 11.0264128,1.85238497 C16.1172273,1.85238497 20.2224235,5.98398978 20.2224235,11.0483957 C20.2224235,11.5631963 20.644824,11.9635967 21.1376246,11.9635967 C21.6524252,11.9635967 22.0528257,11.5411962 22.0528257,11.0483957 C22.0968257,4.92800573 17.14682,-4.26325641e-14 11.04843,-4.26325641e-14 L11.0483957,-4.26325641e-14 Z" id="路径"></path>
                    <path d="M11.0483957,11.0263956 C10.5335951,11.0263956 10.0407945,11.1671958 9.618394,11.4267961 L5.65398939,8.02559215 C5.27998896,7.69559177 4.69038827,7.74399182 4.36478789,8.11799226 C4.03478751,8.49199269 4.08318756,9.08159338 4.457188,9.40719376 L8.46999267,12.8303977 C8.37759256,13.1119981 8.30719248,13.4155984 8.30719248,13.7455988 C8.30719248,15.2460006 9.5259939,16.491202 11.0527957,16.491202 C12.5531974,16.491202 13.7983989,15.2724006 13.7983989,13.7455988 C13.7675988,12.2715971 12.5487974,11.0263956 11.0483957,11.0263956 L11.0483957,11.0263956 Z" id="路径"></path>
                </g>
            </g>
        </g>
    </g>
</svg>